<?xml version="1.0" encoding="UTF-8"?>
<svg width="210px" height="61px" viewBox="0 0 210 61" version="1.1" xmlns="http://www.w3.org/2000/svg" xmlns:xlink="http://www.w3.org/1999/xlink">
    <title>E443323B-7D2C-42F0-A51D-FEC73D1F4AE2</title>
    <g id="Page-1" stroke="none" stroke-width="1" fill="none" fill-rule="evenodd">
        <g id="login---empty-PIN" transform="translate(-407.000000, -58.000000)">
            <g id="logo" transform="translate(407.000000, 58.000000)">
                <path d="M26.7583894,12.5816999 C18.557583,12.5816999 11.6284966,17.9682483 9.3706122,25.3651801 C12.614661,22.3703175 16.9636775,20.5351725 21.7469984,20.5351725 C31.7800297,20.5351725 39.9131905,28.5956959 39.9131905,38.5385303 C39.9131905,40.3542436 39.6393103,42.106009 39.1347756,43.758408 C42.695217,40.4718936 44.9245814,35.7876235 44.9245814,30.5850577 C44.9245814,20.6422233 36.7914207,12.5816999 26.7583894,12.5816999 Z" id="Path" fill="#D63B30"></path>
                <path d="M27.1475968,8.9947895 C39.126467,8.9947895 48.8717347,18.6527047 48.8717347,30.5242013 C48.8717347,42.3956978 39.126467,52.053613 27.1475968,52.053613 C15.1687266,52.053613 5.42345889,42.3956978 5.42345889,30.5242013 C5.42345889,18.6527047 15.1687266,8.9947895 27.1475968,8.9947895 Z M106.816533,24.4501091 L110.360318,34.9195916 L110.469224,35.268609 C110.712929,36.1011881 110.883768,37.0612027 110.98174,38.1486529 L110.98174,38.1486529 L111.082511,38.1486529 L111.142494,37.662901 C111.276855,36.6995496 111.497592,35.7851132 111.804704,34.9195916 L111.804704,34.9195916 L115.281309,24.4501091 L120.773336,24.4501091 L112.829211,45.4390079 L112.689109,45.797388 C111.970393,47.5606802 110.978591,48.8948526 109.713703,49.7999052 C108.364489,50.7652947 106.788541,51.2479894 104.985857,51.2479894 C104.10131,51.2479894 103.233558,51.1536698 102.382602,50.9650304 L102.382602,50.9650304 L102.382602,46.9370261 L102.695179,47.0031423 C103.223917,47.1033184 103.791532,47.1534065 104.398025,47.1534065 C105.304965,47.1534065 106.097139,46.8787698 106.774545,46.3294965 C107.451951,45.7802232 107.980999,44.950765 108.36169,43.8411219 L108.36169,43.8411219 L108.664004,42.9256664 L101.206939,24.4501091 L106.816533,24.4501091 Z M44.6196859,29.0488956 C44.2917963,29.6272529 43.9846727,30.1753144 43.8126621,30.7009412 C43.6225592,31.2816833 43.5402971,31.9503978 43.4535788,32.6585057 C43.2995714,33.912202 43.1404838,35.208648 42.351374,36.2835729 C41.5545103,37.3681252 40.3548923,37.9180416 39.1947565,38.4502929 C38.5465528,38.7473325 37.9337316,39.0282968 37.4445263,39.3811584 C36.9656594,39.7266889 36.5134408,40.2123041 36.0349305,40.7267135 C35.2036647,41.6194223 34.261617,42.6315475 32.9558515,43.0517133 C32.4744,43.2066367 31.9890271,43.2654617 31.5032976,43.2654617 C30.7239024,43.2654617 29.9441507,43.114248 29.1799066,42.9663023 C28.4612944,42.8271008 27.782521,42.6955837 27.1474186,42.6955837 C26.5123162,42.6955837 25.8336318,42.8271891 25.1151088,42.9663023 C23.874939,43.2063718 22.592435,43.4552738 21.3389857,43.0518016 C20.0332202,42.6317242 19.0911724,41.6195106 18.2598175,40.7265368 C17.7811289,40.2124807 17.3289103,39.7265122 16.8497761,39.3809817 C16.3608382,39.0281202 15.748017,38.7474208 15.0995459,38.4497629 C13.9394101,37.9180416 12.739792,37.3678603 11.9434631,36.2833079 C11.1545316,35.208648 10.995444,33.912202 10.8414366,32.6587707 C10.7547183,31.9503978 10.6727236,31.2816833 10.4823533,30.7012062 C10.3103427,30.1753144 10.0032191,29.6269879 9.67532944,29.0488956 C9.63388647,29.535659 9.60777294,30.0267504 9.60777294,30.5242013 C9.60777294,40.1091395 17.475966,47.9068054 27.1475968,47.9068054 C36.8192276,47.9068054 44.6872424,40.1091395 44.6872424,30.5242013 C44.6872424,30.0267504 44.6611289,29.5357473 44.6196859,29.0488956 Z M150.349668,24.1005716 C152.152352,24.1005716 153.742297,24.4889467 155.119503,25.2656968 C156.496708,26.042447 157.554805,27.1576383 158.293794,28.6112707 C159.032782,30.0649031 159.402276,31.7682052 159.402276,33.721177 C159.402276,36.7505026 158.596107,39.1195906 156.983769,40.8284409 C155.37143,42.5372913 153.126473,43.3917165 150.248897,43.3917165 C148.446213,43.3917165 146.856269,43.0005673 145.479063,42.2182689 C144.101857,41.4359705 143.04376,40.3124569 142.304772,38.8477281 C141.565783,37.3829992 141.196289,35.6741489 141.196289,33.721177 C141.196289,30.680755 141.99686,28.3172153 143.598001,26.6305578 C145.199143,24.9439003 147.449699,24.1005716 150.349668,24.1005716 Z M171.645971,24.1005716 C173.448655,24.1005716 175.038599,24.4889467 176.415805,25.2656968 C177.793011,26.042447 178.851108,27.1576383 179.590096,28.6112707 C180.329085,30.0649031 180.698579,31.7682052 180.698579,33.721177 C180.698579,36.7505026 179.89241,39.1195906 178.280071,40.8284409 C176.667733,42.5372913 174.422776,43.3917165 171.5452,43.3917165 C169.742516,43.3917165 168.152571,43.0005673 166.775365,42.2182689 C165.39816,41.4359705 164.340063,40.3124569 163.601074,38.8477281 C162.862086,37.3829992 162.492592,35.6741489 162.492592,33.721177 C162.492592,30.680755 163.293162,28.3172153 164.894304,26.6305578 C166.495446,24.9439003 168.746001,24.1005716 171.645971,24.1005716 Z M201.339869,17.1597541 L201.339869,43.0588235 L197.409794,43.0588235 L196.418878,40.6453498 L196.20054,40.6453498 L196.051804,40.8694457 C194.887123,42.5509595 193.16201,43.3917165 190.876465,43.3917165 C188.670696,43.3917165 186.937992,42.5428395 185.678353,40.8450856 C184.418714,39.1473317 183.788894,36.7948884 183.788894,33.7877556 C183.788894,30.7362372 184.429911,28.3588269 185.711944,26.6555248 C186.993976,24.9522226 188.760271,24.1005716 191.010826,24.1005716 C193.37335,24.1005716 195.176034,25.0104789 196.418878,26.8302935 L196.418878,26.8302935 L196.58683,26.8302935 L196.505757,26.3734905 C196.302279,25.1701442 196.20054,24.0851599 196.20054,23.1185375 L196.20054,23.1185375 L196.20054,17.1597541 L201.339869,17.1597541 Z M69.9007021,18.624483 L78.6006112,43.0588235 L72.9910173,43.0588235 L71.210727,37.2664867 L62.2588901,37.2664867 L60.4785998,43.0588235 L54.8690059,43.0588235 L63.5353246,18.624483 L69.9007021,18.624483 Z M91.9527883,24.1005716 C94.1361631,24.1005716 95.7932887,24.6859083 96.9241649,25.8565817 C98.0550411,27.0272552 98.6204792,28.7166868 98.6204792,30.9248765 L98.6204792,30.9248765 L98.6204792,43.0588235 L93.4979459,43.0588235 L93.4979459,32.1898696 L93.4936725,31.8859817 C93.4594859,30.6942644 93.2201792,29.7885593 92.7757526,29.1688663 C92.2942905,28.4975323 91.5273101,28.1618652 90.4748114,28.1618652 C89.0416218,28.1618652 88.0059183,28.6362376 87.367701,29.5849825 C86.7294838,30.5337273 86.4103751,32.1066464 86.4103751,34.3037397 L86.4103751,34.3037397 L86.4103751,43.0588235 L81.2878418,43.0588235 L81.2878418,24.4501091 L85.2011214,24.4501091 L85.8897242,26.8302935 L86.1752425,26.8302935 L86.3363236,26.5905969 C86.8910739,25.80972 87.6239549,25.2099625 88.5349668,24.7913244 C89.5370799,24.3308225 90.6763537,24.1005716 91.9527883,24.1005716 Z M137.938022,18.7243509 L137.938022,22.952091 L128.986185,22.952091 L128.986185,29.2271226 L137.3166,29.2271226 L137.3166,33.4382181 L128.986185,33.4382181 L128.986185,43.0588235 L123.863652,43.0588235 L123.863652,18.7243509 L137.938022,18.7243509 Z M27.1475968,13.1415971 C19.16167,13.1415971 12.4100308,18.4603113 10.297687,25.7095624 C10.4117666,26.4752586 10.8485666,27.2488159 11.3091629,28.0612366 C11.680278,28.7159957 12.0643162,29.3928362 12.3012095,30.1161361 C12.5485305,30.870615 12.6455873,31.663339 12.7399703,32.4299186 C12.8700032,33.4902697 12.9926387,34.4914425 13.489687,35.1683714 C13.9937761,35.8550161 14.9212074,36.2799515 15.9027374,36.730413 C16.6065549,37.0529788 17.3342578,37.3866737 17.9753316,37.8489709 C18.6066016,38.3045553 19.1450037,38.8826476 19.6654027,39.4415732 C20.4028202,40.2339439 21.0995968,40.9826816 21.9298822,41.2494255 C22.7123077,41.5013307 23.7008785,41.309752 24.7484499,41.106691 C25.5247257,40.9563605 26.3273825,40.8008188 27.1476859,40.8008188 C27.9679894,40.8008188 28.7706462,40.9563605 29.546922,41.106691 C30.5944934,41.3098404 31.5836881,41.5010657 32.3654897,41.2497788 C33.1957751,40.98277 33.8922844,40.2342972 34.6297019,39.4419265 C35.1501008,38.8826476 35.6884138,38.3045553 36.3197729,37.8489709 C36.9608467,37.387027 37.6885496,37.0532438 38.3920106,36.730413 C39.3738971,36.2802165 40.3012393,35.8549278 40.8053284,35.1683714 C41.3023767,34.4914425 41.4253687,33.4899164 41.555669,32.4295652 C41.6496955,31.6632507 41.7468414,30.870615 41.9942515,30.1157828 C42.2309666,29.3931012 42.6146483,28.7162606 42.9858525,28.0615015 C43.4468053,27.2488159 43.8836053,26.4749937 43.9975066,25.7089441 C41.8847172,18.459958 35.1334345,13.1415971 27.1475968,13.1415971 Z M192.589574,28.2284438 C191.447501,28.2284438 190.560155,28.7083644 189.927537,29.6682057 C189.294918,30.628047 188.978608,32.0234231 188.978608,33.8543342 C188.978608,35.6852453 189.297717,37.0584286 189.935934,37.9738841 C190.574151,38.8893397 191.48669,39.3470674 192.67355,39.3470674 C193.983575,39.3470674 194.9437,38.9697888 195.553926,38.2152315 C196.164151,37.4606742 196.497256,36.1790365 196.553239,34.3703182 L196.553239,34.3703182 L196.553239,33.8210449 L196.550014,33.4744446 C196.51561,31.6572409 196.205974,30.3413348 195.621106,29.5267262 C194.999684,28.6612046 193.989174,28.2284438 192.589574,28.2284438 Z M150.282488,28.1951545 C148.916479,28.1951545 147.931161,28.6528823 147.326534,29.5683378 C146.721907,30.4837934 146.419594,31.8680731 146.419594,33.721177 C146.419594,35.5631846 146.724706,36.9557866 147.334931,37.8989832 C147.945157,38.8421798 148.938872,39.3137781 150.316078,39.3137781 C151.682087,39.3137781 152.664606,38.8449539 153.263634,37.9073055 C153.862662,36.9696571 154.162177,35.574281 154.162177,33.721177 C154.162177,31.8791695 153.859863,30.4976639 153.255236,29.5766602 C152.65061,28.6556564 151.659693,28.1951545 150.282488,28.1951545 Z M171.57879,28.1951545 C170.212781,28.1951545 169.227463,28.6528823 168.622836,29.5683378 C168.01821,30.4837934 167.715896,31.8680731 167.715896,33.721177 C167.715896,35.5631846 168.021009,36.9557866 168.631234,37.8989832 C169.241459,38.8421798 170.235175,39.3137781 171.61238,39.3137781 C172.978389,39.3137781 173.960908,38.8449539 174.559937,37.9073055 C175.158965,36.9696571 175.458479,35.574281 175.458479,33.721177 C175.458479,31.8791695 175.156166,30.4976639 174.551539,29.5766602 C173.946912,28.6556564 172.955996,28.1951545 171.57879,28.1951545 Z M28.9579416,24.2384963 C32.4552828,24.2384963 35.3004987,27.0582089 35.3004987,30.5242013 C35.3004987,33.9901937 32.4552828,36.8099062 28.9579416,36.8099062 C25.4606005,36.8099062 22.6153846,33.9901937 22.6153846,30.5242013 C22.6153846,27.0582089 25.4606005,24.2384963 28.9579416,24.2384963 Z M28.9579416,26.7217759 C26.8422111,26.7217759 25.1211247,28.4274353 25.1211247,30.5242013 C25.1211247,32.6209672 26.8422111,34.3266266 28.9579416,34.3266266 C31.0736721,34.3266266 32.7947586,32.6209672 32.7947586,30.5242013 C32.7947586,28.4274353 31.0736721,26.7217759 28.9579416,26.7217759 Z M66.7432062,22.4028177 C66.3737119,23.8231608 65.3156149,27.3351811 63.568915,32.9388787 L63.568915,32.9388787 L69.9678829,32.9388787 C68.3219541,27.6902669 67.3954194,24.7219717 67.1882787,24.033993 C66.981138,23.3460143 66.8327805,22.8022892 66.7432062,22.4028177 Z" id="Combined-Shape" fill="#222B45"></path>
            </g>
        </g>
    </g>
</svg>